<?xml version="1.0" encoding="UTF-8"?>
<svg width="300px" height="309px" viewBox="0 0 300 309" version="1.1" xmlns="http://www.w3.org/2000/svg" xmlns:xlink="http://www.w3.org/1999/xlink">
    <!-- Generator: Sketch 55.2 (78181) - https://sketchapp.com -->
    <title>aws-cloud</title>
    <desc>Created with Sketch.</desc>
    <defs>
        <linearGradient x1="75.5863219%" y1="0.564284215%" x2="25.1436954%" y2="114.608737%" id="linearGradient-1">
            <stop stop-color="#50FFD2" offset="0%"></stop>
            <stop stop-color="#0064FF" offset="100%"></stop>
        </linearGradient>
        <linearGradient x1="75.5863219%" y1="6.28515012%" x2="25.1436954%" y2="107.131999%" id="linearGradient-2">
            <stop stop-color="#50FFD2" offset="0%"></stop>
            <stop stop-color="#0064FF" offset="100%"></stop>
        </linearGradient>
    </defs>
    <g id="Page-1" stroke="none" stroke-width="1" fill="none" fill-rule="evenodd">
        <g id="aws-cloud">
            <g id="Fill-10">
                <g id="path-1-link" fill="#000000" fill-rule="nonzero">
                    <path d="M299.637116,149.753189 C299.049552,66.9223853 231.58389,0.250939269 148.941579,0.839843227 C66.2992675,1.42457056 -0.224625999,69.0482868 0.362937832,151.87909 C0.667137545,194.785547 18.9149532,233.356668 47.9264383,260.488016 L40.2131003,308.81573 L82.7177178,284.81685 C103.249115,295.19576 126.484973,300.967854 151.058475,300.792436 C233.700787,300.207709 300.220513,232.583992 299.637116,149.753189 L299.637116,149.753189 Z" id="path-1"></path>
                </g>
                <g id="path-1-link" fill="#FFFFFF">
                    <path d="M299.637116,149.753189 C299.049552,66.9223853 231.58389,0.250939269 148.941579,0.839843227 C66.2992675,1.42457056 -0.224625999,69.0482868 0.362937832,151.87909 C0.667137545,194.785547 18.9149532,233.356668 47.9264383,260.488016 L40.2131003,308.81573 L82.7177178,284.81685 C103.249115,295.19576 126.484973,300.967854 151.058475,300.792436 C233.700787,300.207709 300.220513,232.583992 299.637116,149.753189 L299.637116,149.753189 Z" id="path-1"></path>
                </g>
            </g>
            <g id="IBMCloud" transform="translate(60.000000, 59.000000)" fill-rule="nonzero">
                <path d="M0,155.479954 L0,152.682816 L3.94639431,152.682816 L3.94639431,130.46285 L0,130.46285 L0,127.676188 L11.2271753,127.676188 L11.2271753,130.46285 L7.31243652,130.46285 L7.31243652,152.72472 L11.2271753,152.72472 L11.2271753,155.479954 L0,155.479954 Z M17.4105631,127.634283 L28.9437422,127.634283 C33.5654552,127.634283 36.4144565,130.46285 36.4144565,134.810463 C36.4144565,139.000932 33.7237331,140.436168 31.8771583,140.719025 L31.8771583,140.959977 C35.1660158,141.280892 37.6017027,144.140051 37.3746756,147.4133 C37.3746756,152.001864 34.2829816,155.479954 30.1466538,155.479954 L17.4105631,155.479954 L17.4105631,127.676188 L17.4105631,127.634283 Z M20.7766053,139.765693 L28.5427716,139.765693 C31.1912877,139.765693 32.7635143,138.372362 32.7635143,135.899985 L32.7635143,134.527606 C32.7635143,132.055229 31.1596321,130.661898 28.5427716,130.661898 L20.7766053,130.661898 L20.7766053,139.765693 Z M20.7766053,152.609482 L29.1020201,152.609482 C31.9932286,152.609482 33.7553887,151.100913 33.7553887,148.303775 L33.7553887,146.941872 C33.7553887,144.15521 31.9932286,142.636165 29.1020201,142.636165 L20.7766053,142.636165 L20.7766053,152.609482 Z M65.4637175,132.065705 L65.2632321,132.065705 L62.9312718,136.727603 L56.2202912,148.859012 L49.5093104,136.727603 L47.1034873,132.10761 L46.9030018,132.10761 L46.9030018,155.479954 L43.6424783,155.479954 L43.6424783,127.676188 L48.0637061,127.676188 L56.1042206,142.67807 L56.2624985,142.67807 L64.3452205,127.676188 L68.7664483,127.676188 L68.7664483,155.479954 L65.4637175,155.479954 L65.4637175,132.065705 Z M82.3466876,141.798071 C82.3466876,132.369514 87.2110936,127.194284 94.7662227,127.194284 C99.9049769,127.194284 103.207708,129.289519 105.254768,133.741893 L99.9788398,136.444746 C99.4431337,134.026429 97.188377,132.374353 94.7029115,132.579037 C91.1363841,132.579037 88.7622163,134.978081 88.7622163,139.357122 L88.7622163,143.830448 C88.7622163,148.219965 91.1363841,150.608533 94.7029115,150.608533 C97.3078854,150.630541 99.6023983,148.911254 100.295396,146.418064 L105.275872,149.299011 C103.1655,153.489481 99.8522174,155.962131 94.7240154,155.962131 C87.2533009,156.003763 82.3888952,151.216151 82.3888952,141.798071 L82.3466876,141.798071 Z M115.21572,155.479954 C111.163808,155.479954 109.317233,153.447576 109.317233,149.728535 L109.317233,126 L115.257928,126 L115.257928,150.933295 L117.916996,150.933295 L117.916996,155.479954 L115.21572,155.479954 Z M120.164541,145.00378 C120.164541,138.2676 123.857691,134.07713 130.051631,134.07713 C136.24557,134.07713 139.93872,138.2676 139.93872,145.00378 C139.93872,151.73996 136.24557,155.982811 130.051631,155.982811 C123.857691,155.982811 120.164541,151.771388 120.164541,145.00378 Z M133.744781,147.161872 L133.744781,142.908545 C133.744781,140.268549 132.383591,138.718075 130.051631,138.718075 C127.71967,138.718075 126.358481,140.226645 126.358481,142.908545 L126.358481,147.172348 C126.358481,149.812344 127.71967,151.362818 130.051631,151.362818 C132.383591,151.362818 133.744781,149.812344 133.744781,147.182824 L133.744781,147.161872 Z M156.610653,151.991388 L156.410168,151.991388 C155.623409,154.530388 153.168727,156.18847 150.501128,155.982811 C146.206523,155.982811 143.91677,152.986625 143.91677,147.717109 L143.91677,134.579987 L149.857465,134.579987 L149.857465,147.224729 C149.857465,149.780916 150.701614,151.216151 152.875296,151.216151 C154.721871,151.216151 156.610653,150.168534 156.610653,148.178061 L156.610653,134.559034 L162.5619,134.559034 L162.5619,155.511383 L156.610653,155.511383 L156.610653,152.001864 L156.610653,151.991388 Z M181.048753,151.991388 L180.848268,151.991388 C180.070856,154.430077 177.757145,156.059874 175.181921,155.982811 C169.832129,155.982811 167.067543,152.106626 167.067543,145.00378 C167.067543,137.900934 169.842681,134.07713 175.181921,134.07713 C177.762629,133.981937 180.086281,135.618737 180.848268,138.068553 L181.048753,138.068553 L181.048753,126 L187,126 L187,155.479954 L181.048753,155.479954 L181.048753,151.991388 Z M181.048753,148.115204 L181.048753,141.934261 C181.048753,140.017121 179.402663,138.864742 177.155118,138.864742 C174.907572,138.864742 173.250931,140.572358 173.250931,143.212354 L173.250931,146.837111 C173.250931,149.477106 174.897021,151.195199 177.155118,151.195199 C179.413215,151.195199 181.048753,150.053296 181.048753,148.146632 L181.048753,148.115204 Z" id="IBM_Cloud" fill="#231F20"></path>
                <g id="Layer_2" transform="translate(37.000000, 0.000000)" fill="url(#linearGradient-2)">
                    <path d="M15.9230493,41.4667792 C15.554742,41.4632068 15.1934404,41.3643906 14.8734086,41.1797016 L4.70239032,35.2254973 C3.76248335,34.698456 3.32256665,33.5710355 3.65274962,32.5354729 C4.05747903,31.4009004 5.29170415,30.8114392 6.41330464,31.217042 C6.53633784,31.2563331 6.65303414,31.3136466 6.75968607,31.3871622 L16.9412008,37.3413665 C17.9402914,37.9301056 18.3316636,39.1932038 17.8438918,40.2546734 C17.4782641,40.9912488 16.7369095,41.4590645 15.9230493,41.4667792 Z M33.5045309,23.6042147 C32.7399683,23.6092877 32.0295781,23.2050171 31.6361704,22.5409159 L25.768679,12.2380161 C25.208836,11.3088724 25.3807537,10.1077058 26.1780389,9.37787161 C26.6075347,8.98996311 27.1753937,8.79764555 27.7488431,8.84588511 C28.3222924,8.8941247 28.8510554,9.17869207 29.2115006,9.6330518 C29.2967794,9.73294383 29.3740012,9.83961174 29.4424214,9.95202703 L35.3099128,20.2017643 C35.9130119,21.1961409 35.6670995,22.4923899 34.7431069,23.1894989 C34.3813074,23.4517413 33.949347,23.596359 33.5045309,23.6042147 Z M55.3685467,14.7579204 L55.3685467,3.06216216 C55.3485682,1.84510126 56.2694686,0.823639895 57.467828,0.733643018 C58.0456957,0.70775852 58.6095162,0.918636964 59.0321195,1.31871444 C59.4547228,1.71879192 59.7005156,2.2743726 59.7140589,2.86014452 C59.7140589,2.86014452 59.7140589,2.92393957 59.7140589,2.95583709 L59.7140589,14.8855105 C59.7140589,16.0951779 58.7459824,17.075807 57.5517991,17.075807 L57.4573314,17.075807 C56.267228,16.9807247 55.3537971,15.9671067 55.3685467,14.7579204 Z M81.5465855,23.6041991 C81.1066435,23.6066256 80.6770573,23.469012 80.3185059,23.2107639 C79.3941915,22.5026485 79.157259,21.1964701 79.7726927,20.2017643 L85.6401841,9.90949699 C86.2387833,8.86711976 87.5539921,8.5067926 88.5896744,9.10142642 C88.6995388,9.17239294 88.8047255,9.25052994 88.9045668,9.3353416 C89.6979572,10.0672749 89.869447,11.26545 89.3139265,12.1954861 L83.4359386,22.4983859 C83.0493981,23.1854485 82.3272558,23.6080965 81.5465855,23.6041991 Z M99.1280672,41.4668071 C98.3294062,41.4654808 97.5958305,41.0204447 97.217721,40.307836 C96.7022472,39.2245996 97.112408,37.922142 98.1519012,37.3413665 L108.249445,31.4403248 C109.156051,30.873414 110.333695,31.0483148 111.041489,31.8549925 C111.426849,32.2872887 111.620291,32.860781 111.576645,33.4415599 C111.533,34.0223389 111.256088,34.5595614 110.810568,34.9277872 C110.714588,35.0174645 110.608961,35.0959287 110.495676,35.1617022 L100.209197,41.1797016 C99.8798847,41.3697168 99.5070528,41.4687164 99.1280672,41.4668071 Z M30.17717,91.2694444 C19.9667481,80.9918003 16.2370322,65.8198714 20.4970392,51.8921136 C24.7570461,37.9643554 36.3016173,27.5862289 50.4599004,24.9566508 C64.6181835,22.3270727 79.0465593,27.8813169 87.9074081,39.3721752 C88.5686817,40.2227758 89.1984661,41.1159065 89.7757685,42.0090372 L86.1859973,44.4119838 C85.6716733,43.6145457 85.1363567,42.8277402 84.5170685,42.0728323 C76.6655731,31.7964579 63.8172723,26.8054212 51.1957632,29.1288747 C38.5742542,31.4523283 28.2810496,40.7034112 24.5009482,53.1210094 C20.7208468,65.5386073 24.0832448,79.0551594 33.2211281,88.1753848 L30.17717,91.2694444 Z M85.0943709,102.74192 L25.5797437,102.74192 C18.9486998,102.694179 12.6084679,99.977778 7.95605868,95.1912516 C3.3036495,90.4047251 0.72084216,83.9408577 0.775845522,77.2239021 L5.08026095,77.2239021 C5.02433209,82.7855327 7.15548297,88.1411136 11.0033966,92.1087382 C14.8513102,96.0763629 20.099673,98.329877 25.5902401,98.3719594 L85.0733782,98.3719594 C95.049194,98.424425 104.11582,92.5088223 108.194192,83.2865734 C112.272565,74.0643244 110.594293,63.2729607 103.914429,55.767502 L107.063351,52.8541948 C114.826212,61.6571184 116.758942,74.2585381 111.99864,85.0323224 C107.238338,95.8061066 96.6734634,102.74192 85.0208962,102.74192 L85.0943709,102.74192 Z M5.08026095,77.2770647 L0.776734112,77.2770647 C0.834340629,64.982676 9.62111274,54.5154829 21.5911091,52.4820569 L22.3048647,56.73506 C12.3925213,58.4224346 5.12011755,67.0954789 5.08026095,77.2770647 Z M59.8295196,72.6200264 L55.5154963,72.6200264 C55.6023003,60.2556955 63.1858429,49.2181228 74.6016904,44.840759 C86.017538,40.4633949 98.915572,43.6473839 107.063351,52.8541948 L103.914429,55.767502 C96.9876851,47.8114596 85.9242145,45.0261012 76.1264215,48.7715449 C66.3286284,52.5169885 59.8402072,62.0119829 59.8295196,72.6200264 Z" id="Shape"></path>
                </g>
            </g>
        </g>
    </g>
</svg>