<svg xmlns="http://www.w3.org/2000/svg" viewBox="0 0 429.94 90.78"><defs><style>.a{fill:#fff;fill-rule:evenodd;}</style></defs><path class="a" d="M427,71a3,3,0,0,1,3,3V88a3,3,0,0,1-3,3H413a3,3,0,0,1-3-3V74a3,3,0,0,1,3-3ZM26.94,16.32A78.61,78.61,0,0,1,41,17.51,53.27,53.27,0,0,1,52.42,20.8a51,51,0,0,1-2.24,9.59Q48.5,35.5,47,39.7H42.2L36.32,25.42a12.81,12.81,0,0,0-3.5-.91,35.65,35.65,0,0,0-4.06-.21,7.92,7.92,0,0,0-8.54,8,8.33,8.33,0,0,0,2.59,6.09,31.09,31.09,0,0,0,6.44,4.83q3.86,2.23,8.4,4.48a54,54,0,0,1,8.4,5.11,27,27,0,0,1,6.44,6.79A16.59,16.59,0,0,1,55.08,69a17.59,17.59,0,0,1-7.84,15.19q-7.85,5.53-21,5.53a72.24,72.24,0,0,1-13.86-1.4A50.14,50.14,0,0,1,.06,84.36,31.89,31.89,0,0,1,2.44,74.14,71.14,71.14,0,0,1,6.92,64.9h4.76l6.86,15.26A7,7,0,0,0,22,81.49a32.4,32.4,0,0,0,3.57.21A12.52,12.52,0,0,0,33,79.32a7.63,7.63,0,0,0,3.36-6.58,8.7,8.7,0,0,0-2.59-6.3,29.92,29.92,0,0,0-6.44-4.9q-3.86-2.24-8.4-4.48a47.89,47.89,0,0,1-8.4-5.25,28.11,28.11,0,0,1-6.44-7.07A18.09,18.09,0,0,1,1.46,34.8a15.08,15.08,0,0,1,2-7.63,18.07,18.07,0,0,1,5.32-5.81,26.11,26.11,0,0,1,8-3.71A37,37,0,0,1,26.94,16.32Zm72.1,0a44.2,44.2,0,0,1,13.37,2,23.3,23.3,0,0,1,10.36,6.44,24.91,24.91,0,0,1,5.74,11.76q1.61,7.27-.21,17.78h-43Q85.46,65.32,91,71.9t16.31,6.58a35.44,35.44,0,0,0,9.59-1.4,22,22,0,0,0,7.77-3.64l2.66,2.8a17.63,17.63,0,0,1-3.57,4.83,25,25,0,0,1-6,4.34,36.93,36.93,0,0,1-8.26,3.08,41.37,41.37,0,0,1-10.15,1.19,42.53,42.53,0,0,1-15.4-2.59,29.51,29.51,0,0,1-11.2-7.42,32,32,0,0,1-6.79-11.55A46.34,46.34,0,0,1,63.62,53q0-17.93,9.38-27.3T99,16.32Zm77.14,0a50.78,50.78,0,0,1,12.6,1.47,45.07,45.07,0,0,1,9.52,3.43c-.19,1.59-.44,3.34-.77,5.25s-.7,3.83-1.12,5.74-.91,3.78-1.47,5.6a36.86,36.86,0,0,1-1.68,4.55H186.4L180.52,25.7a7.13,7.13,0,0,0-2.1-1.05,12.2,12.2,0,0,0-3.36-.35,13.87,13.87,0,0,0-6.3,1.33,11.22,11.22,0,0,0-4.55,4.55,25.52,25.52,0,0,0-2.8,8.54,79.52,79.52,0,0,0-.91,13.16,41.79,41.79,0,0,0,1.26,10.57,24.75,24.75,0,0,0,3.85,8.4,18.4,18.4,0,0,0,6.51,5.6,19.86,19.86,0,0,0,9.24,2,23.37,23.37,0,0,0,14.7-4.76l2.24,2.94a13.88,13.88,0,0,1-3.22,5.11,24.38,24.38,0,0,1-5.39,4.13,27.12,27.12,0,0,1-7.14,2.8,35,35,0,0,1-8.33,1,43.69,43.69,0,0,1-15.89-2.59,28.33,28.33,0,0,1-11-7.42,30.7,30.7,0,0,1-6.44-11.62,50.78,50.78,0,0,1-2.1-15q0-17.78,9.73-27.23T176.18,16.32Zm126.14,0a44.2,44.2,0,0,1,13.37,2,23.3,23.3,0,0,1,10.36,6.44,24.91,24.91,0,0,1,5.74,11.76q1.6,7.27-.21,17.78h-43q.13,11.06,5.67,17.64t16.31,6.58a35.44,35.44,0,0,0,9.59-1.4,22,22,0,0,0,7.77-3.64l2.66,2.8A17.63,17.63,0,0,1,327,81.07a25,25,0,0,1-6,4.34,36.93,36.93,0,0,1-8.26,3.08,41.37,41.37,0,0,1-10.15,1.19,42.53,42.53,0,0,1-15.4-2.59A29.51,29.51,0,0,1,276,79.67a32,32,0,0,1-6.79-11.55A46.34,46.34,0,0,1,266.9,53q0-17.93,9.38-27.3T302.32,16.32ZM370.22.22V18H388.7v8.82H370.22V63.08q0,8.69,2.17,12t7.21,3.36a52.68,52.68,0,0,0,5.67-.35,24.59,24.59,0,0,0,5.81-1.33l1,4.62a17.78,17.78,0,0,1-3.71,2.66,45.72,45.72,0,0,1-12.46,4.76,35,35,0,0,1-7.77.84q-9.11,0-13.58-4.76t-4.48-15.4V26.82h-11.2V21.36a36.81,36.81,0,0,1,11.2-4.76V5.26a26.9,26.9,0,0,1,5.53-2.45A59.45,59.45,0,0,1,365.46.22Zm-112.7,16.1a17.48,17.48,0,0,1,2.66,5.53c.75,2.38,1.35,4.64,1.82,6.79V34.1H242.82a19.39,19.39,0,0,0-3.92,2.8,17,17,0,0,0-4.06,6.44V79.18a34.46,34.46,0,0,1,5.6,1,25.52,25.52,0,0,1,5.6,2.31V88h-40.6V82.54a26.21,26.21,0,0,1,4.76-2.1c1.49-.47,3-.89,4.48-1.26V27.94l-9.24-1.12V21.36A36.93,36.93,0,0,1,211,19.54c2.19-.56,4.46-1.05,6.79-1.47s4.6-.77,6.79-1.05l5.53-.7h4.76V34.94h.56a32.49,32.49,0,0,1,3.29-6.44,34.08,34.08,0,0,1,5.11-6.16,25,25,0,0,1,6.44-4.48A15.32,15.32,0,0,1,257.52,16.32Zm-159,8a12,12,0,0,0-5,1,8.77,8.77,0,0,0-3.78,3.57,22.75,22.75,0,0,0-2.59,7A74.37,74.37,0,0,0,85.74,47h22.54q1-10.92-1.26-16.8A8.41,8.41,0,0,0,98.48,24.3Zm203.28,0a12,12,0,0,0-5,1A8.77,8.77,0,0,0,293,28.85a22.75,22.75,0,0,0-2.59,7A74.37,74.37,0,0,0,289,47h22.54q1-10.92-1.26-16.8A8.41,8.41,0,0,0,301.76,24.3Z" transform="translate(-0.06 -0.22)"/></svg> 
